<?xml version="1.0" encoding="utf-8"?>
<!-- Generator: Adobe Illustrator 12.0.0, SVG Export Plug-In . SVG Version: 6.00 Build 51448)  -->
<!DOCTYPE svg PUBLIC "-//W3C//DTD SVG 1.1//EN" "http://www.w3.org/Graphics/SVG/1.1/DTD/svg11.dtd" [
	<!ENTITY ns_svg "http://www.w3.org/2000/svg">
	<!ENTITY ns_xlink "http://www.w3.org/1999/xlink">
]>
<svg  version="1.1" id="Layer_1" xmlns="&ns_svg;" xmlns:xlink="&ns_xlink;" width="578.927" height="228.05"
	 viewBox="0 0 578.927 228.05" overflow="visible" enable-background="new 0 0 578.927 228.05" xml:space="preserve">
<path fill="#4C3B4D" d="M186.592,158.382V17.311c0,0-39.076-17.18-93.281-17.311l0,0h-0.013c-0.006,0-0.013,0-0.019,0l0,0
	C39.073,0.131,0,17.311,0,17.311v141.072c0,42.488,67.745,63.227,93.278,69.66v0.008c0.006,0,0.013,0,0.019,0h0.013v-0.008
	C118.844,221.609,186.592,200.656,186.592,158.382z"/>
<path fill="#9F84BD" d="M11.03,154.044V28.94c0,0,33.854-15.233,80.813-15.352V215.83C69.763,210.13,11.03,195.46,11.03,154.044z"/>
<path fill="#4C3B4D" d="M574.16,131.482l-16.586-19.672l14.67-17.432c4.059-4.82,4.885-11.469,2.119-17.083
	c-2.765-5.61-8.625-9.184-15.06-9.184h-20.882c-4.632,0-9.018,1.857-12.15,5.071c-3.128-3.215-7.518-5.071-12.147-5.071h-20.806
	c-4.484,0-8.668,1.768-11.741,4.721c-2.231-1.19-4.561-2.266-7.05-3.125c-0.007-0.003-0.017-0.003-0.023-0.006
	c-5.749-1.97-12.121-2.973-18.945-2.973c-6.729,0-13.064,1.024-18.816,3.047c-3.11,1.089-6.032,2.463-8.754,4.085V62.265
	c0-8.899-7.467-16.106-16.679-16.106h-16.675c-2.388,0-4.646,0.503-6.699,1.373c-2.055-0.87-4.312-1.373-6.699-1.373h-65.622
	c-3.257,0-6.268,0.935-8.835,2.493c-2.565-1.558-5.579-2.493-8.833-2.493h-16.678c-9.212,0-16.677,7.208-16.677,16.106v4.516
	c-3.24,0.123-6.426,0.621-9.502,1.525c-0.849-0.127-1.718-0.195-2.604-0.195h-16.742c-5.847,0-10.971,2.917-13.947,7.312
	c-3.417-2.346-7.191-4.287-11.343-5.72c-0.003,0-0.003,0-0.006-0.003c-5.748-1.97-12.125-2.973-18.952-2.973
	c-6.726,0-13.055,1.024-18.81,3.047c-6.067,2.123-11.441,5.294-15.954,9.417c-4.589,4.201-8.152,9.271-10.608,15.09
	c-2.378,5.617-3.585,11.881-3.585,18.624c0,6.856,1.248,13.215,3.713,18.901c2.563,5.92,6.267,11.018,11.018,15.188
	c0.934,0.822,1.931,1.576,2.937,2.316v9.619h27.163c1.75,0.135,3.526,0.217,5.338,0.217c1.679,0,3.332-0.09,4.97-0.217h253.749
	c1.753,0.135,3.531,0.217,5.343,0.217c1.678,0,3.328-0.09,4.967-0.217h117.192v-21.184"/>
<path fill="#4C3B4D" d="M131.234,54.952l-27.997,87.13c-0.871,2.705-1.546,5.273-2.057,7.723h-2.214
	c-0.472-2.293-1.107-4.736-1.946-7.377L68.839,54.952H36.033l46.001,125.694h34.497L163.09,54.952H131.234z"/>
<path fill="#F6F8FF" d="M124.524,54.952l-27.997,87.13c-0.872,2.705-1.546,5.273-2.058,7.723h-2.214
	c-0.472-2.293-1.107-4.736-1.946-7.377L62.13,54.952H29.324l46.002,125.694h34.496L156.38,54.952H124.524z"/>
<g>
	<path fill="#F6F8FF" d="M222.569,126.58c-0.856,3.348-2.2,6.309-4.028,8.883c-1.829,2.576-4.039,4.744-6.627,6.502
		c-2.59,1.76-5.513,3.09-8.767,3.99c-3.254,0.9-6.735,1.352-10.44,1.352c-4.989,0-9.539-0.729-13.648-2.188
		c-4.11-1.459-7.637-3.572-10.583-6.34s-5.227-6.148-6.842-10.139c-1.615-3.992-2.422-8.52-2.422-13.584
		c0-4.978,0.784-9.452,2.351-13.421c1.568-3.969,3.776-7.349,6.628-10.138c2.85-2.79,6.247-4.924,10.191-6.406
		c3.943-1.48,8.315-2.221,13.114-2.221c4.939,0,9.394,0.731,13.362,2.19c3.966,1.459,7.352,3.562,10.154,6.309
		c2.803,2.746,4.965,6.115,6.486,10.106c1.52,3.991,2.28,8.519,2.28,13.582v4.828h-46.894c0.854,4.852,2.696,8.488,5.523,10.912
		s6.26,3.635,10.299,3.635c1.281,0,2.576-0.17,3.883-0.514c1.308-0.342,2.52-0.848,3.636-1.512c1.117-0.666,2.09-1.48,2.921-2.445
		s1.438-2.094,1.818-3.381H222.569z M205.678,107.075c-1.093-3.777-2.876-6.609-5.347-8.498c-2.47-1.888-5.416-2.832-8.835-2.832
		c-3.374,0-6.32,0.944-8.837,2.832c-2.52,1.889-4.324,4.721-5.416,8.498H205.678z"/>
	<path fill="#F6F8FF" d="M273.939,99.413c-1.474-0.557-2.863-0.975-4.17-1.255c-1.307-0.278-3.101-0.418-5.381-0.418
		s-4.372,0.527-6.271,1.577c-1.9,1.053-3.777,2.673-5.63,4.859v41.649h-16.748V84.35h16.748v3.542
		c4.133-3.348,8.671-5.022,13.612-5.022c0.902,0,1.982,0.066,3.242,0.194c1.258,0.128,2.791,0.366,4.598,0.708V99.413z"/>
	<path fill="#F6F8FF" d="M297.945,76.69h-16.677V60.854h16.677V76.69z M297.945,145.826h-16.677V84.35h16.677V145.826z"/>
	<path fill="#F6F8FF" d="M381.246,75.468h-48.105v19.568h41.834v14.549h-41.834v36.241h-17.531V60.854h65.637V75.468z"/>
	<path fill="#F6F8FF" d="M411.309,145.826h-16.678V60.854h16.678V145.826z"/>
	<path fill="#F6F8FF" d="M486.629,126.58c-0.856,3.348-2.2,6.309-4.027,8.883c-1.83,2.576-4.04,4.744-6.628,6.502
		c-2.591,1.76-5.513,3.09-8.767,3.99s-6.735,1.352-10.439,1.352c-4.989,0-9.539-0.729-13.649-2.188
		c-4.109-1.459-7.637-3.572-10.583-6.34c-2.945-2.768-5.226-6.148-6.842-10.139c-1.615-3.992-2.422-8.52-2.422-13.584
		c0-4.978,0.784-9.452,2.352-13.421c1.567-3.969,3.775-7.349,6.628-10.138c2.85-2.79,6.247-4.924,10.19-6.406
		c3.943-1.48,8.315-2.221,13.114-2.221c4.939,0,9.394,0.731,13.362,2.19c3.967,1.459,7.352,3.562,10.154,6.309
		c2.803,2.746,4.965,6.115,6.486,10.106c1.52,3.991,2.28,8.519,2.28,13.582v4.828h-46.894c0.854,4.852,2.695,8.488,5.522,10.912
		s6.261,3.635,10.3,3.635c1.28,0,2.575-0.17,3.883-0.514c1.307-0.342,2.519-0.848,3.636-1.512c1.116-0.666,2.089-1.48,2.921-2.445
		c0.831-0.965,1.438-2.094,1.817-3.381H486.629z M469.737,107.075c-1.093-3.777-2.876-6.609-5.347-8.498
		c-2.47-1.888-5.415-2.832-8.835-2.832c-3.374,0-6.32,0.944-8.838,2.832c-2.52,1.889-4.324,4.721-5.416,8.498H469.737z"/>
	<path fill="#F6F8FF" d="M561.231,145.826h-20.881L526.312,126l-13.97,19.826h-20.738l24.943-31.928L493.313,84.35h20.812
		l12.187,17.446l12.114-17.446h20.882l-23.233,29.547L561.231,145.826z"/>
</g>
</svg>
